<svg width="145" height="48" viewBox="0 0 145 48" fill="none" xmlns="http://www.w3.org/2000/svg">
<path d="M11.373 39.8105C7.72852 39.8105 4.97461 38.955 3.11133 37.2441C1.24805 35.5332 0.316406 33.0019 0.316406 29.6504V24.834C0.316406 21.5058 1.24805 18.9922 3.11133 17.2929C4.97461 15.5937 7.72852 14.7441 11.373 14.7441C14.9473 14.7441 17.666 15.5644 19.5293 17.205C21.3926 18.834 22.3652 21.248 22.4473 24.4472V26.7324L11.8652 26.75V23.4629C11.8652 23.123 11.6953 22.9531 11.3555 22.9531C11.0156 22.9531 10.8457 23.123 10.8457 23.4629V31.0039C10.8457 31.3437 11.0156 31.5136 11.3555 31.5136C11.6953 31.5136 11.8652 31.3437 11.8652 31.0039V27.8047H22.4473V30.0722C22.3535 33.2832 21.3691 35.709 19.4941 37.3496C17.6309 38.9902 14.9238 39.8105 11.373 39.8105ZM33.9961 39.2304L33.627 31.8828H32.9414V39.2304H23.2383V15.3242H33.0469C35.3672 15.3242 37.2715 15.5117 38.7598 15.8867C40.2598 16.25 41.4375 16.9707 42.293 18.0488C43.1484 19.1152 43.5762 20.6679 43.5762 22.707V25.4492C43.5762 27.4882 42.9668 29.0234 41.748 30.0547L43.6465 39.2304H33.9961ZM33.3633 26.6269C33.5977 26.6269 33.7559 26.5683 33.8379 26.4511C33.9316 26.3222 33.9785 26.082 33.9785 25.7304V23.0058C33.9785 22.6425 33.9375 22.4023 33.8555 22.2851C33.7734 22.1562 33.5918 22.0918 33.3105 22.0918H32.959V26.6269H33.3633ZM44.4023 15.3242H54.6504V39.2304H44.4023V15.3242ZM66.7617 37.209H65.3555L65.2852 39.2304H55.0547L60.7148 15.3242H71.3848L77.0625 39.2304H66.8496L66.7617 37.209ZM66.498 31.9355L66.1641 24.8515H65.8477L65.5664 31.9355H66.498ZM77.4492 15.3242H87.873C91.4473 15.3242 94.1484 16.1328 95.9766 17.75C97.8047 19.3554 98.7188 21.7343 98.7188 24.8867V29.6328C98.7188 32.7968 97.8047 35.1875 95.9766 36.8047C94.1602 38.4218 91.4707 39.2304 87.9082 39.2304H77.4492V15.3242ZM87.6973 31.3203C87.9082 31.3203 88.0547 31.2793 88.1367 31.1972C88.2305 31.1152 88.2891 30.9687 88.3125 30.7578C88.3359 30.5468 88.3477 30.1894 88.3477 29.6855V24.957C88.3477 24.4414 88.3359 24.0781 88.3125 23.8672C88.2891 23.6445 88.2305 23.4922 88.1367 23.4101C88.0547 23.3164 87.9082 23.2695 87.6973 23.2695H87.3281V31.3203H87.6973ZM99.2109 24.7988C99.2109 21.4824 100.143 18.9804 102.006 17.2929C103.869 15.5937 106.629 14.7441 110.285 14.7441C113.941 14.7441 116.701 15.5937 118.564 17.2929C120.428 18.9922 121.359 21.5058 121.359 24.834V29.6504C121.359 33.0019 120.428 35.5332 118.564 37.2441C116.701 38.955 113.941 39.8105 110.285 39.8105C106.641 39.8105 103.887 38.955 102.023 37.2441C100.172 35.5332 99.2344 33.0019 99.2109 29.6504V24.7988ZM109.793 31.0039C109.793 31.3437 109.957 31.5136 110.285 31.5136C110.613 31.5136 110.777 31.3437 110.777 31.0039V23.4629C110.777 23.123 110.613 22.9531 110.285 22.9531C109.957 22.9531 109.793 23.123 109.793 23.4629V31.0039ZM132.891 39.2304L132.521 31.8828H131.836V39.2304H122.133V15.3242H131.941C134.262 15.3242 136.166 15.5117 137.654 15.8867C139.154 16.25 140.332 16.9707 141.188 18.0488C142.043 19.1152 142.471 20.6679 142.471 22.707V25.4492C142.471 27.4882 141.861 29.0234 140.643 30.0547L142.541 39.2304H132.891ZM132.258 26.6269C132.492 26.6269 132.65 26.5683 132.732 26.4511C132.826 26.3222 132.873 26.082 132.873 25.7304V23.0058C132.873 22.6425 132.832 22.4023 132.75 22.2851C132.668 22.1562 132.486 22.0918 132.205 22.0918H131.854V26.6269H132.258Z" fill="black"/>
<path d="M42.0115 20.3393C41.7715 20.3393 41.5675 20.2914 41.3995 20.1954C41.2315 20.0994 41.1475 19.9194 41.1474 19.6554C41.1474 19.3194 41.2314 18.9234 41.3994 18.4674C41.5913 18.0114 41.7953 17.5553 42.0113 17.0993C42.2272 16.6433 42.4072 16.2713 42.5512 15.9833C42.8392 15.4313 43.1151 14.8793 43.3791 14.3272C43.643 13.7752 43.871 13.3072 44.063 12.9232C44.255 12.5632 44.351 12.3232 44.3509 12.2032C44.3509 12.0112 44.2069 12.0112 43.9189 12.2032C43.655 12.3952 43.403 12.5872 43.163 12.7793C42.635 13.2833 42.0831 13.8833 41.5071 14.5794C40.9311 15.2514 40.4872 15.7914 40.1752 16.1995C40.1032 16.2955 40.0432 16.3435 39.9952 16.3435C39.9472 16.3435 39.9232 16.2835 39.9232 16.1635C39.9232 15.9715 39.9832 15.7915 40.1032 15.6235C40.4391 15.1434 40.8351 14.6154 41.2911 14.0394C41.747 13.4634 42.215 12.9113 42.695 12.3833C43.1509 11.9033 43.6189 11.4352 44.0989 10.9792C44.5788 10.5232 45.1908 10.2951 45.9348 10.2951C46.4388 10.295 46.6908 10.487 46.6909 10.871C46.6909 11.207 46.5469 11.591 46.2589 12.023C46.0909 12.2871 45.827 12.7311 45.467 13.3551C45.1071 13.9791 44.7351 14.6632 44.3512 15.4072C43.9912 16.1272 43.6793 16.7992 43.4153 17.4232C43.1513 18.0473 43.0194 18.5033 43.0194 18.7913C43.0194 19.1273 43.1874 19.2953 43.5234 19.2952C43.7874 19.2952 44.1114 19.1632 44.4954 18.8992C44.8794 18.6111 45.2753 18.2751 45.6833 17.8911C46.4273 17.171 47.0992 16.391 47.6992 15.551C48.3231 14.6869 48.8511 13.8589 49.283 13.0668C49.7389 12.2748 50.0989 11.6268 50.3629 11.1228C50.4109 11.0268 50.4589 10.9188 50.5068 10.7988C50.5788 10.6548 50.6868 10.5708 50.8308 10.5467C50.9748 10.5227 51.2868 10.5107 51.7668 10.5107C52.2468 10.5106 52.6908 10.4146 53.0988 10.2226L53.1708 10.2226C53.2428 10.2226 53.2788 10.2586 53.2788 10.3306C53.2788 10.5226 53.1228 10.6666 52.8108 10.7626C52.5229 10.8586 52.1869 11.1466 51.8029 11.6267C51.4429 12.1067 51.083 12.6947 50.723 13.3907C50.3631 14.0628 50.0391 14.7588 49.7512 15.4788C49.4632 16.1988 49.2473 16.8588 49.1033 17.4589C48.9593 18.0589 48.9234 18.5029 48.9954 18.7909C49.0914 19.1269 49.2594 19.2948 49.4994 19.2948C49.8114 19.2948 50.2434 19.1028 50.7954 18.7187C51.3714 18.3347 51.9593 17.8787 52.5593 17.3506C53.1593 16.7986 53.6512 16.2946 54.0352 15.8385C54.2032 15.6465 54.3592 15.4545 54.5031 15.2625C54.6471 15.0705 54.7431 14.9505 54.7911 14.9025C54.8151 14.9265 54.8391 14.9745 54.8631 15.0465C54.8871 15.0945 54.8991 15.1425 54.8991 15.1905C54.8752 15.3585 54.8152 15.5265 54.7192 15.6945C54.6232 15.8385 54.5152 15.9705 54.3952 16.0905C53.9392 16.6905 53.3873 17.3266 52.7393 17.9986C52.1154 18.6467 51.4314 19.1987 50.6874 19.6547C49.9675 20.1108 49.2235 20.3388 48.4555 20.3389C48.2155 20.3389 47.9395 20.2789 47.6275 20.159C47.3395 20.039 47.1955 19.775 47.1954 19.367C47.1954 19.055 47.2794 18.635 47.4473 18.107C47.6153 17.555 47.7953 17.0149 47.9872 16.4869C48.2032 15.9349 48.3832 15.5269 48.5271 15.2629C48.2152 15.7189 47.8312 16.2349 47.3753 16.811C46.9433 17.363 46.4993 17.855 46.0434 18.2871C45.4434 18.8631 44.7954 19.3551 44.0995 19.7632C43.4275 20.1472 42.7315 20.3393 42.0115 20.3393Z" fill="#8E0404"/>
<path d="M31.0441 20.3041C30.6601 20.3041 30.3121 20.2321 30.0001 20.0881C29.7121 19.9202 29.5681 19.5722 29.5681 19.0442C29.568 18.2042 29.7839 17.3642 30.2159 16.5241C30.6478 15.6601 31.0918 14.9041 31.5477 14.256C31.9557 13.704 32.4117 13.188 32.9156 12.7079C33.4436 12.2039 34.0076 11.7719 34.6075 11.4118C34.9915 11.1718 35.5075 10.9198 36.1555 10.6557C36.8275 10.3677 37.3915 10.2236 37.8475 10.2236C38.2315 10.2236 38.5675 10.3316 38.8555 10.5475C39.1435 10.7395 39.2875 11.0995 39.2876 11.6275C39.2876 12.4435 39.0717 13.2835 38.6397 14.1476C38.2318 14.9876 37.7998 15.7316 37.3439 16.3796C37.1279 16.6677 36.9119 16.9437 36.6959 17.2077C36.48 17.4477 36.24 17.6997 35.976 17.9637C36.864 17.9637 37.68 17.7116 38.4239 17.2076C39.1679 16.6795 39.8159 16.0435 40.3678 15.2994L40.4398 15.2274C40.5118 15.2274 40.5478 15.2994 40.5478 15.4434C40.5478 15.6114 40.4998 15.7674 40.4038 15.9114C39.9239 16.5835 39.3239 17.1835 38.604 17.7116C37.884 18.2156 37.068 18.4677 36.156 18.4677C36.06 18.4677 35.964 18.4677 35.868 18.4677C35.772 18.4678 35.676 18.4558 35.58 18.4318C34.2361 19.6799 32.7241 20.304 31.0441 20.3041ZM31.9801 19.692C32.3161 19.692 32.6761 19.572 33.0601 19.3319C33.4681 19.0919 33.78 18.8639 33.996 18.6479C34.404 18.2398 34.776 17.8078 35.1119 17.3518C35.4479 16.8718 35.7599 16.3918 36.0478 15.9117C36.3838 15.3357 36.7198 14.6517 37.0557 13.8597C37.3917 13.0676 37.5596 12.3236 37.5596 11.6276C37.5595 11.0756 37.3675 10.7996 36.9835 10.7997C36.6715 10.7997 36.2875 10.9317 35.8315 11.1957C35.3995 11.4598 35.0756 11.6998 34.8596 11.9158C34.0436 12.7559 33.3597 13.6679 32.8078 14.652C32.4958 15.204 32.1598 15.852 31.7999 16.596C31.4399 17.34 31.26 18.0241 31.26 18.6481C31.26 18.7441 31.26 18.8401 31.2601 18.9361C31.2841 19.0081 31.3081 19.0921 31.3321 19.188C31.4281 19.524 31.6441 19.692 31.9801 19.692Z" fill="#8E0404"/>
<path d="M20.958 21.4567C20.118 21.4568 19.23 21.3249 18.294 21.0609C17.382 20.821 16.566 20.413 15.8459 19.8371C15.1499 19.2611 14.6818 18.4932 14.4418 17.5332C14.4178 17.4132 14.3938 17.2812 14.3697 17.1372C14.3697 16.9932 14.3697 16.8492 14.3697 16.7052C14.3697 15.9612 14.5376 15.2412 14.8736 14.5452C15.2095 13.8491 15.6175 13.3211 16.0975 12.9611L16.1335 12.9611C16.1815 12.9611 16.2415 13.0211 16.3135 13.1411C16.4095 13.2371 16.4095 13.3091 16.3135 13.3571C16.0735 13.5971 15.8935 13.8731 15.7735 14.1851C15.6776 14.4731 15.6296 14.7851 15.6296 15.1211C15.6296 15.5771 15.7017 16.0451 15.8457 16.5251C16.0137 16.9811 16.2178 17.3771 16.4578 17.7131C17.0578 18.553 17.8859 19.225 18.9419 19.7289C20.0219 20.2088 21.078 20.4487 22.11 20.4487C23.526 20.4486 24.6179 20.0285 25.3859 19.1884C26.1778 18.3484 26.5738 17.3164 26.5737 16.0924C26.5736 15.3484 26.4296 14.6044 26.1415 13.8604C25.7575 12.8284 25.2414 11.8205 24.5933 10.8365C23.9693 9.82855 23.3932 8.84458 22.8651 7.88462C22.4091 7.02065 22.181 6.14467 22.1809 5.25667C22.1809 4.32067 22.4688 3.42065 23.0448 2.55661C23.6207 1.78857 24.3767 1.17652 25.3126 0.720453C26.2726 0.240389 27.2446 0.000323878 28.2286 0.000257674C28.9006 0.000212461 29.5486 0.120169 30.1726 0.360127C30.7966 0.600084 31.3607 0.996046 31.8647 1.54801C32.0087 1.764 32.0807 2.04 32.0808 2.376C32.0808 2.856 31.9848 3.22801 31.7928 3.49202C31.5768 3.80403 31.3369 4.21205 31.0729 4.71607C30.8089 5.22008 30.653 5.5681 30.605 5.7601C30.557 5.7841 30.437 5.83211 30.245 5.90412C30.077 5.95213 29.969 5.94014 29.921 5.86814C30.017 5.67614 30.1489 5.32813 30.3169 4.82412C30.4849 4.32011 30.5689 3.8641 30.5688 3.4561C30.5688 3.1921 30.5568 2.9041 30.5328 2.5921C30.5327 2.2561 30.3767 1.96811 30.0647 1.72814C29.7767 1.46415 29.4047 1.23618 28.9487 1.04421C28.4926 0.852241 27.9406 0.756279 27.2926 0.756322C25.9726 0.756411 24.9647 1.14048 24.2687 1.90853C23.5728 2.67657 23.2248 3.51659 23.2249 4.42859C23.2249 4.88459 23.3209 5.34059 23.513 5.79658C23.873 6.66055 24.3771 7.47652 25.0251 8.24447C25.6732 9.01243 26.3093 9.80439 26.9333 10.6203C27.5814 11.4123 28.0854 12.2763 28.4455 13.2122C28.6855 13.8362 28.8056 14.4722 28.8056 15.1202C28.8057 16.0562 28.5657 16.9082 28.0858 17.6763C27.6298 18.4443 27.0059 19.1163 26.2139 19.6924C25.446 20.2444 24.606 20.6765 23.694 20.9886C22.782 21.3006 21.87 21.4567 20.958 21.4567Z" fill="#8E0404"/>
</svg>
